<?xml version="1.0" encoding="UTF-8" standalone="no"?>
<svg
   xmlns:dc="http://purl.org/dc/elements/1.1/"
   xmlns:cc="http://creativecommons.org/ns#"
   xmlns:rdf="http://www.w3.org/1999/02/22-rdf-syntax-ns#"
   xmlns:svg="http://www.w3.org/2000/svg"
   xmlns="http://www.w3.org/2000/svg"
   id="svg8"
   version="1.1"
   viewBox="0 0 8.4666667 8.4666667"
   height="32"
   width="32">
  <defs
     id="defs2" />
  <metadata
     id="metadata5">
    <rdf:RDF>
      <cc:Work
         rdf:about="">
        <dc:format>image/svg+xml</dc:format>
        <dc:type
           rdf:resource="http://purl.org/dc/dcmitype/StillImage" />
        <dc:title></dc:title>
      </cc:Work>
    </rdf:RDF>
  </metadata>
  <g
     id="layer1">
    <rect
       ry="2.5985863"
       y="1.7763568e-15"
       x="1.7763568e-15"
       height="8.4666662"
       width="8.4666662"
       id="rect1475"
       style="fill:#000000;fill-opacity:1;fill-rule:nonzero;stroke:none;stroke-width:0.388369;stroke-linecap:round;stroke-opacity:1" />
    <g
       style="fill:#ffffff;fill-opacity:1;stroke:none"
       transform="matrix(0.04984225,0,0,0.04984225,-0.67302562,-6.4916359)"
       id="g849">
      <path
         style="fill:#ffffff;fill-opacity:1;stroke:none;stroke-width:2.64583;stroke-linecap:butt;stroke-linejoin:round;stroke-miterlimit:4;stroke-dasharray:none;stroke-opacity:1"
         d="m 67.886375,166.30525 c 0.502465,-15.65141 1.497976,-24.59894 6.472859,-24.03297 3.423042,0.38942 11.194293,7.26118 12.786759,15.01066"
         id="path909" />
      <path
         style="fill:#ffffff;fill-opacity:1;stroke:none;stroke-width:2.64583;stroke-linecap:butt;stroke-linejoin:miter;stroke-miterlimit:4;stroke-dasharray:none;stroke-opacity:1"
         d="m 148.06732,166.30521 c 1.06099,-1.37838 2.0535,-3.70607 3.53537,-4.286 6.78243,-2.6543 12.98056,-3.6237 16.4186,-1.44964 5.32033,3.36434 3.39582,12.60353 -6.32323,20.70274"
         id="path911" />
    </g>
    <path
       id="path880"
       d="m 7.825974,4.5016181 c 0,0.4600456 -0.039866,1.1355013 -0.1654334,1.6437265 C 7.580915,6.4676241 7.4668296,6.6669048 7.3065957,6.879671 7.0525613,7.2169904 6.7461325,7.3308135 6.3616015,7.3979168 c -0.4707077,0.082142 -1.0451681,0.074355 -1.6195118,0.074355 -0.6571658,0 -1.374113,-0.077187 -2.0788226,-0.286601 C 2.2660071,7.0676191 1.884473,6.9168348 1.5110441,6.6923807 1.088538,6.4384274 0.82903486,5.9998385 0.70574732,5.5353724 0.6284554,5.244187 0.58852977,4.9509172 0.64578508,4.6614738 0.72571289,4.2574132 0.95116142,3.661535 1.3005315,3.3314616 1.4292873,3.2098176 1.5634074,3.1699633 1.6859781,3.0833734 1.7769777,3.0190873 1.8556326,2.9170835 1.9525671,2.7998587 2.1573407,2.5522208 2.3035808,2.2319115 2.5209223,1.9953807 2.6586041,1.8455424 2.8487451,1.7612261 3.0240538,1.6485419 3.4855293,1.3519152 4.1815797,1.27786 4.675483,1.27786 c 0.9859888,0 1.8476593,0.2569383 2.4148148,0.9372107 C 7.5620856,2.780955 7.825974,3.6931175 7.825974,4.5016181 Z"
       style="fill:#ffffff;fill-opacity:1;fill-rule:nonzero;stroke:#ffffff;stroke-width:0.131874;stroke-linejoin:round;stroke-miterlimit:4;stroke-dasharray:none;stroke-opacity:1" />
    <path
       id="path913"
       d="m 6.6936621,1.9583174 c -1e-6,1.6e-6 0.00795,-0.025651 0.0015,-0.032466 C 6.6628931,1.8917691 6.5501513,1.8090722 6.4989604,1.7843865 6.4463459,1.7590143 6.2731854,1.6610542 6.2466473,1.6492216 6.1526105,1.6072934 5.9692992,1.5359303 5.9524305,1.5312536 5.8500486,1.5028679 5.6928915,1.4504004 5.6292374,1.4372291 5.4807863,1.4065113 5.2515477,1.3738801 5.2006788,1.3696296 5.1263087,1.3634154 5.0311692,1.3519123 4.9305457,1.3433069 4.710376,1.3244779 4.4754804,1.342958 4.4558496,1.3446926 4.3463387,1.3543564 4.1377449,1.3632508 4.1341143,1.3736887 3.9239791,1.9778493 4.0163249,2.561832 4.0312521,3.0095703 4.0543495,3.7023663 4.1320237,4.1492509 4.5195271,4.2344229 4.8908284,4.3160336 5.2214032,4.0020263 5.6412166,3.5565183 5.8956129,3.2865517 6.2507011,2.9690163 6.4693535,2.5902265 6.6071942,2.3514343 6.6373559,2.2492258 6.6936601,1.958319"
       style="fill:#000000;fill-opacity:1;stroke:none;stroke-width:0.0131874px;stroke-linecap:butt;stroke-linejoin:miter;stroke-opacity:1" />
  </g>
</svg>
